<svg xmlns="http://www.w3.org/2000/svg" version="1.1" xmlns:xlink="http://www.w3.org/1999/xlink" xmlns:svgjs="http://svgjs.dev/svgjs" width="1000" height="750" viewBox="0 0 1000 750"><rect width="1000" height="750" fill="#0a1627"></rect><g transform="matrix(0.5417439703153989,0,0,0.5417439703153989,229.0403328581732,83.23687385666474)"><svg viewBox="0 0 229 247" data-background-color="#0a1627" preserveAspectRatio="xMidYMid meet" height="1078" width="1000" xmlns="http://www.w3.org/2000/svg" xmlns:xlink="http://www.w3.org/1999/xlink"><g id="tight-bounds" transform="matrix(1,0,0,1,0.03706395542062069,-0.09997365579206985)"><svg viewBox="0 0 228.92583626168226 247.2" height="247.2" width="228.92583626168226"><g><svg viewBox="0 0 228.92583626168226 247.2" height="247.2" width="228.92583626168226"><g><svg viewBox="0 0 228.92583626168226 247.2" height="247.2" width="228.92583626168226"><g id="textblocktransform"><svg viewBox="0 0 228.92583626168226 247.2" height="247.2" width="228.92583626168226" id="textblock"><g><svg viewBox="0 0 228.92583626168226 247.2" height="247.2" width="228.92583626168226"><path d="M228.39 53.02C227.314 27.36 224.246 20.227 224.246 20.227 214.829-6.202 203.077-0.506 192.519 3.292 173.879 3.446 155.314 9.091 136.717 12.119 97.682 12.581 58.313 4.986 19.472 23.717 15.824 29.464-3.785 24.846 0.649 56.304 1.811 69.39 6.052 83.913 5.922 95.922 6.504 98.026 7.311 93.202 7.655 96.23 8.861 104.39 10.83 100.541 12.444 105.365 10.195 118.246 11.809 128.971 13.348 140.21 10.636 143.135 7.16 141.749 5.6 151.449 5.438 158.479 4.566 157.145 3.609 156.837 2.909 156.632 1.499 157.402 1.736 159.608 2.543 167.152-0.922 171.514 1.252 178.904-0.244 186.91 2.285 193.838 1.94 202.511 1.897 204.255 2.134 205.744 2.511 206.154 4.179 208.361 1.747 212.672 2.005 217.342 19.117 249.262 37.682 227.195 55.214 241.872 59.766 231.608 56.344 245.516 58.163 243.36 59.583 240.846 60.616 251.263 62.22 245.362 62.468 243.668 62.091 239.665 62.973 240.435 63.436 240.846 63.845 240.743 63.91 238.382 64.007 234.841 63.156 237.048 62.93 235.201 65.373 225.861 64.771 248.081 67.063 247.158 66.955 244.438 66.288 240.538 67.655 241.051 69.011 237.151 69.054 233.918 70.259 242.693 70.303 244.592 70.518 245.926 70.862 246.85 74.629 237.305 78.374 250.237 82.324 245.926 84.746 241.205 87.07 248.492 89.524 246.696 90.385 245.259 91.257 242.693 92.085 247.004 102.234 247.928 113.05 244.079 122.672 247.158 148.383 241.41 175.859 249.518 202.969 241.923 209.362 238.998 216.002 234.841 222.234 231.506 222.234 231.506 227.281 222.371 227.281 181.316S228.358 145.393 228.519 112.703C228.68 80.013 229.434 78.679 228.358 53.02Z" opacity="1" fill="#fe0039" data-fill-palette-color="tertiary"></path><g transform="matrix(1,0,0,1,55.76832000000001,26.230666666666668)"><svg width="117.38919626168224" viewBox="4.300000190734863 -32.099998474121094 19.349998474121094 32.099998474121094" height="194.73866666666666" data-palette-color="#0a1627"><path d="M15.55-4.15L23.3-4.4 23.6-3.95 23.25 0 4.3 0 4.65-9.65 4.3-32.1 23.35-32.1 23.65-31.65 23.25-27.7 15.65-27.9 9.55-27.85 9.4-18.5 15.2-18.4 20.5-18.55 20.85-18.15 20.45-14.2 14.8-14.35 9.35-14.25 9.3-10.1 9.45-4.2 15.55-4.15Z" opacity="1" transform="matrix(1,0,0,1,0,0)" fill="#0a1627" class="undefined-text-0" data-fill-palette-color="quaternary" id="text-0"></path></svg></g></svg></g></svg></g></svg></g><g></g></svg></g><defs></defs></svg><rect width="228.92583626168226" height="247.2" fill="none" stroke="none" visibility="hidden"></rect></g></svg></g></svg>